<svg width="1440" height="814" viewBox="0 0 1440 814" fill="none" xmlns="http://www.w3.org/2000/svg">
<g clip-path="url(#clip0_466_386)">
<rect width="1440" height="814" fill="white"/>
<g clip-path="url(#clip1_466_386)">
<rect width="1611.09" height="944" transform="translate(-125.014 -71)" fill="#0D5E47" fill-opacity="0.1"/>
<path d="M-99.8398 260.029L1444.82 682.396V845.309H-99.8398V260.029Z" fill="#0D5E47"/>
<path d="M-125.013 262.547L1486.08 703.08V873H-125.013V262.547Z" fill="white"/>
<path d="M1485.45 703.561V872.371H-124.383V263.371L1485.45 703.561Z" stroke="#0D5E47" stroke-opacity="0.2" stroke-width="1.25867"/>
<path d="M207.275 343.101L1153.79 601.971V701.821H207.275V343.101Z" fill="white"/>
<line x1="1178.34" y1="-71" x2="1178.34" y2="873" stroke="#0D5E47" stroke-opacity="0.2" stroke-width="1.25867" stroke-dasharray="7.55 7.55"/>
<line x1="700.043" y1="-71" x2="700.043" y2="873" stroke="#0D5E47" stroke-opacity="0.2" stroke-width="1.25867" stroke-dasharray="7.55 7.55"/>
<line x1="221.75" y1="-71" x2="221.75" y2="873" stroke="#0D5E47" stroke-opacity="0.2" stroke-width="1.25867" stroke-dasharray="7.55 7.55"/>
<line x1="939.19" y1="-71" x2="939.19" y2="873" stroke="#0D5E47" stroke-opacity="0.2" stroke-width="1.25867" stroke-dasharray="7.55 7.55"/>
<line x1="460.897" y1="-71" x2="460.897" y2="873" stroke="#0D5E47" stroke-opacity="0.2" stroke-width="1.25867" stroke-dasharray="7.55 7.55"/>
</g>
</g>
<defs>
<clipPath id="clip0_466_386">
<rect width="1440" height="814" fill="white"/>
</clipPath>
<clipPath id="clip1_466_386">
<rect width="1611.09" height="944" fill="white" transform="translate(-125.014 -71)"/>
</clipPath>
</defs>
</svg>
